# xmcd
#
# Track frame offsets:
#	150
#	20367
#	58388
#	79919
#	111304
#	134031
#	154955
#	176949
#	191795
#	211619
#	246448
#	270611
#	300074
#	313485
#
# Disc length: 4524 seconds
#
# Revision: 0
# Processed by: cddbd v1.5.1PL0 Copyright (c) Steve Scherf et al.
# Submitted via: dBpowerAMP V4.0
#
DISCID=d311aa0e
DTITLE=Buddy Guy - Buddy's Baddest - The Best Of
DYEAR=1900
DGENRE=Blues
TTITLE0=Damn Night, I've Got The Blues
TTITLE1=Five Long Years
TTITLE2=Mustang Sally
TTITLE3=Rememberin' Stevie
TTITLE4=She's A Superstar
TTITLE5=Feels Like Rain
TTITLE6=She's Nineteen Years Old
TTITLE7=I Smell Trouble
TTITLE8=Someone Else Is Steppin' In
TTITLE9=My Time After Awhile
TTITLE10=Midnight Train 
TTITLE11=Miss Ida B
TTITLE12=I Need Your Love So Bad
TTITLE13=Innocent Man
EXTD=
EXTT0=
EXTT1=
EXTT2=
EXTT3=
EXTT4=
EXTT5=
EXTT6=
EXTT7=
EXTT8=
EXTT9=
EXTT10=
EXTT11=
EXTT12=
EXTT13=
PLAYORDER=
